#!OML:ASF H:\Terrain\Patient Classification 1\Walking\liu\liu.ASF
:FULLY-SPECIFIED
:DEGREES
230
root 0.0217 15.8384 46.9128 7.47421 0.0156 1.91199
lowerback -4.823 -4.00972 -3.66676
upperback -1.16012 -5.21771 2.66315
thorax 2.07652 -2.63769 4.43911
lowerneck -23.4884 -3.21737 -12.6189
upperneck 23.3959 -3.09837 11.306
head 11.9646 -1.06365 5.90678
rclavicle 5.51627e-015 1.43125e-014
rhumerus -50.1704 1.86771 -77.8906
rradius 24.3102
rwrist -9.21011
rhand -30.5693 -21.408
rfingers 7.12502
rthumb -3.86727 -51.3527
lclavicle 5.51627e-015 1.43125e-014
lhumerus -17.2741 -22.2831 86.9236
lradius 43.6022
lwrist 11.4093
lhand -15.5209 -29.3224
lfingers 7.12502
lthumb 10.6623 0.387039
rfemur -41.8073 4.28838 20.9867
rtibia 40.5823
rfoot -7.00166 1.14162
rtoes -11.2553
lfemur 18.9874 9.76135 -20.3514
ltibia 13.4441
lfoot 3.50347 -5.97969
ltoes -16.1933
231
root 0.0217 15.8444 47.1052 7.43552 0.0156 1.66703
lowerback -4.82475 -3.99414 -3.40062
upperback -1.22046 -5.20992 2.68358
thorax 1.9927 -2.62937 4.31471
lowerneck -23.696 -3.14794 -12.4484
upperneck 23.6093 -3.00151 11.134
head 12.0671 -1.02497 5.83866
rclavicle 7.45443e-015 -1.82882e-014
rhumerus -50.0243 2.00401 -78.2665
rradius 24.2963
rwrist -9.07382
rhand -31.1324 -20.445
rfingers 7.12502
rthumb -4.41101 -50.3791
lclavicle 7.45443e-015 -1.82882e-014
lhumerus -18.0663 -22.0862 87.2648
lradius 43.5373
lwrist 11.4845
lhand -15.4454 -29.5038
lfingers 7.12502
lthumb 10.7351 0.201859
rfemur -41.4854 4.02422 21.5903
rtibia 41.7789
rfoot -7.73569 1.60689
rtoes -10.7944
lfemur 17.616 10.5136 -19.6702
ltibia 16.9993
lfoot 4.69468 -5.77878
ltoes -17.2406
232
root 0.0217 15.8539 47.2975 7.18979 0.0156 1.87497
lowerback -4.74351 -4.03164 -3.69777
upperback -1.18284 -5.24683 2.62824
thorax 2.01123 -2.65051 4.42443
lowerneck -24.1112 -2.93 -11.9057
upperneck 23.9429 -2.7649 10.7813
head 12.2284 -0.90953 5.66677
rclavicle 8.69186e-014 1.59028e-015
rhumerus -49.9139 1.91588 -78.2838
rradius 24.7555
rwrist -8.02214
rhand -29.4102 -20.2564
rfingers 7.12502
rthumb -2.74791 -50.2184
lclavicle 8.69186e-014 1.59028e-015
lhumerus -18.8607 -21.9008 87.6728
lradius 43.3783
lwrist 11.3723
lhand -15.5133 -29.3037
lfingers 7.12502
lthumb 10.6696 0.405416
rfemur -40.6845 3.36041 21.7569
rtibia 42.5987
rfoot -8.37922 2.3685
rtoes -11.1642
lfemur 16.1893 10.6514 -19.6717
ltibia 21.0684
lfoot 5.9307 -5.15959
ltoes -17.0335
233
root 0.0217 15.8623 47.4898 6.44903 0.0156 2.81223
lowerback -4.478 -4.11647 -4.68269
upperback -0.943971 -5.31691 2.36268
thorax 2.181 -2.69979 4.70205
lowerneck -24.2326 -2.89954 -11.6403
upperneck 24.0088 -2.71941 10.462
head 12.2622 -0.904215 5.50594
rclavicle 1.18277e-014 -7.95139e-015
rhumerus -49.739 1.80065 -78.1253
rradius 25.1977
rwrist -7.62105
rhand -27.2762 -18.8436
rfingers 7.12502
rthumb -0.686868 -48.8223
lclavicle 1.18277e-014 -7.95139e-015
lhumerus -19.7082 -21.6806 88.233
lradius 43.0819
lwrist 11.2144
lhand -15.5975 -29.1258
lfingers 7.12502
lthumb 10.5884 0.587481
rfemur -39.0113 2.04001 21.1367
rtibia 43.2176
rfoot -9.49644 3.64829
rtoes -12.3961
lfemur 15.4756 10.3664 -20.4711
ltibia 25.0925
lfoot 7.04647 -4.94819
ltoes -17.5982
234
root 0.0217 15.9065 47.6822 6.73889 0.0156 1.21133
lowerback -4.48736 -4.02381 -3.24768
upperback -1.13305 -5.26891 2.84229
thorax 1.90221 -2.65904 4.40938
lowerneck -23.9409 -3.05581 -11.8681
upperneck 23.6372 -2.90555 10.5946
head 12.0924 -0.992187 5.54412
rclavicle -8.07563e-014 1.11319e-014
rhumerus -49.2979 1.78084 -78.2378
rradius 25.365
rwrist -8.14896
rhand -27.4529 -20.008
rfingers 7.12502
rthumb -0.857543 -49.986
lclavicle -8.07563e-014 1.11319e-014
lhumerus -20.4351 -21.3933 88.6933
lradius 42.7159
lwrist 11.1337
lhand -15.3969 -29.0021
lfingers 7.12502
lthumb 10.7819 0.701141
rfemur -38.5728 2.35712 23.064
rtibia 43.2239
rfoot -10.4334 3.57273
rtoes -12.2736
lfemur 12.9501 10.3811 -18.515
ltibia 29.3083
lfoot 8.67506 -4.84871
ltoes -18.4522
235
root 0.0217 15.9407 47.8745 6.85538 0.0156 0.554511
lowerback -4.48315 -3.9133 -2.66565
upperback -1.21545 -5.15045 3.02824
thorax 1.76904 -2.59368 4.28981
lowerneck -23.5177 -3.22728 -12.4075
upperneck 23.2253 -3.10803 11.0683
head 11.8978 -1.07523 5.76567
rclavicle 1.59028e-014 -5.56597e-015
rhumerus -48.974 2.41149 -78.9219
rradius 25.583
rwrist -9.62359
rhand -28.849 -20.8625
rfingers 7.12502
rthumb -2.20592 -50.8308
lclavicle 1.59028e-014 -5.56597e-015
lhumerus -20.9961 -20.9802 89.2179
lradius 42.1775
lwrist 10.5822
lhand -15.2227 -28.8631
lfingers 7.12502
lthumb 10.9499 0.831389
rfemur -37.9329 2.31019 23.9946
rtibia 43.0228
rfoot -10.8975 3.66863
rtoes -11.8939
lfemur 10.638 10.2974 -17.6585
ltibia 33.6597
lfoot 10.0077 -3.92127
ltoes -16.6198
236
root 0.0217 15.9681 48.0668 6.83967 0.0156 0.16933
lowerback -4.4719 -3.84339 -2.37138
upperback -1.20935 -5.07348 3.18195
thorax 1.75037 -2.55421 4.29087
lowerneck -23.5221 -3.33063 -12.7152
upperneck 23.2112 -3.19397 11.2645
head 11.9155 -1.11672 5.88196
rclavicle 1.26228e-014 2.38542e-015
rhumerus -48.9462 3.95628 -80.1928
rradius 26.2368
rwrist -12.2473
rhand -29.4424 -18.545
rfingers 7.12502
rthumb -2.77899 -48.5066
lclavicle 1.26228e-014 2.38542e-015
lhumerus -21.4322 -20.4178 89.7888
lradius 41.447
lwrist 10.0013
lhand -15.1542 -28.8336
lfingers 7.12502
lthumb 11.016 0.857308
rfemur -36.9329 2.22256 24.583
rtibia 42.4482
rfoot -11.0908 3.72249
rtoes -11.7362
lfemur 8.35205 9.98676 -17.1947
ltibia 38.314
lfoot 10.8901 -2.16935
ltoes -11.3594
